<svg xmlns="http://www.w3.org/2000/svg" viewBox="0 0 500 500" width="100%" height="100%">

  <path d="M 180 220 C 110 160, 40 190, 60 270 C 80 350, 140 310, 170 280 Z" 
        fill="#b3e5fc" stroke="#81d4fa" stroke-width="5" stroke-linejoin="round"/>
        
  <path d="M 320 220 C 390 160, 460 190, 440 270 C 420 350, 360 310, 330 280 Z" 
        fill="#b3e5fc" stroke="#81d4fa" stroke-width="5" stroke-linejoin="round"/>

  <path d="M 215 150 L 225 100 L 250 130 L 275 100 L 285 150 Z" 
        fill="#ffca28" stroke="#ffb300" stroke-width="4" stroke-linejoin="round"/>
  <circle cx="225" cy="100" r="5" fill="#ff4081"/>
  <circle cx="250" cy="130" r="5" fill="#ff4081"/>
  <circle cx="275" cy="100" r="5" fill="#ff4081"/>

  <path d="M 250 150
           C 320 150, 340 200, 330 250
           C 320 300, 300 370, 280 370
           C 260 370, 260 310, 250 310
           C 240 310, 240 370, 220 370
           C 200 370, 180 300, 170 250
           C 160 200, 180 150, 250 150 Z"
        fill="#ffffff" stroke="#475569" stroke-width="7" stroke-linejoin="round"/>

  <path d="M 205 220 Q 215 210 225 220" fill="none" stroke="#475569" stroke-width="5" stroke-linecap="round"/>
  <path d="M 275 220 Q 285 210 295 220" fill="none" stroke="#475569" stroke-width="5" stroke-linecap="round"/>
  <ellipse cx="200" cy="235" rx="14" ry="9" fill="#ff8a80" opacity="0.6"/>
  <ellipse cx="300" cy="235" rx="14" ry="9" fill="#ff8a80" opacity="0.6"/>
  <path d="M 240 240 Q 250 255 260 240" fill="none" stroke="#475569" stroke-width="5" stroke-linecap="round"/>
</svg>
